<svg width="32" height="32" xmlns="http://www.w3.org/2000/svg" xmlns:xlink="http://www.w3.org/1999/xlink" version="1.1" x="0px" y="0px" viewBox="0 0 96 120" enable-background="new 0 0 96 96" xml:space="preserve">
    	<style>
		.icon{fill:gray;}
	</style>
    <path d="M50.508,35.212l-3.997-3.996l-3.73-3.73l-3.801-3.797l-3.994-3.995l-2.283-2.286c1.286,1.657,2.47,3.396,3.543,5.211  c0.475,0.799,0.924,1.609,1.352,2.439c1.204,2.317,2.231,4.746,3.063,7.262c0.212,0.64,0.409,1.283,0.596,1.934  c0.689,2.418,1.203,4.912,1.524,7.461c0.122,0.988,0.22,1.986,0.284,2.994c0.052,0.776,0.085,1.565,0.101,2.354  c0.005,0.311,0.007,0.629,0.007,0.942c0,0.315-0.002,0.629-0.007,0.945c-0.011,0.501-0.028,1.005-0.053,1.508  c-0.06,1.294-0.173,2.57-0.332,3.839c-0.191,1.535-0.457,3.05-0.786,4.539c-0.302,1.373-0.664,2.725-1.076,4.053  c-0.664,2.129-1.47,4.201-2.4,6.198c-0.265,0.565-0.538,1.126-0.822,1.679c-1.42,2.771-3.093,5.389-4.987,7.828l3.387-3.386  l3.216-3.218l3.47-3.467l4.11-4.111l5.135-5.137l5.449-5.45l5.823-5.823l-7.025-7.026L50.508,35.212z"/>
</svg>